<mxfile host="app.diagrams.net" agent="Mozilla/5.0 (Windows NT 10.0; Win64; x64) AppleWebKit/537.36 (KHTML, like Gecko) Chrome/134.0.0.0 Safari/537.36" version="26.1.1">
  <diagram name="Page-1" id="V_agToamkLolIVIcvrOi">
    <mxGraphModel dx="955" dy="1575" grid="1" gridSize="10" guides="1" tooltips="1" connect="1" arrows="1" fold="1" page="1" pageScale="1" pageWidth="850" pageHeight="1100" math="0" shadow="0">
      <root>
        <mxCell id="0" />
        <mxCell id="1" parent="0" />
        <mxCell id="L39xVLBxvRy2gjfL3Dl3-106" value="" style="edgeStyle=orthogonalEdgeStyle;rounded=0;orthogonalLoop=1;jettySize=auto;html=1;" edge="1" parent="1" source="L39xVLBxvRy2gjfL3Dl3-107" target="L39xVLBxvRy2gjfL3Dl3-109">
          <mxGeometry relative="1" as="geometry" />
        </mxCell>
        <mxCell id="L39xVLBxvRy2gjfL3Dl3-107" value="Battery input&lt;div&gt;(6V-48V)&lt;/div&gt;" style="rounded=0;whiteSpace=wrap;html=1;fillColor=#f8cecc;strokeColor=#b85450;" vertex="1" parent="1">
          <mxGeometry x="90" y="-700" width="70" height="90" as="geometry" />
        </mxCell>
        <mxCell id="L39xVLBxvRy2gjfL3Dl3-108" value="" style="edgeStyle=orthogonalEdgeStyle;rounded=0;orthogonalLoop=1;jettySize=auto;html=1;" edge="1" parent="1" source="L39xVLBxvRy2gjfL3Dl3-109" target="L39xVLBxvRy2gjfL3Dl3-110">
          <mxGeometry relative="1" as="geometry" />
        </mxCell>
        <mxCell id="L39xVLBxvRy2gjfL3Dl3-109" value="Input Filters" style="rounded=0;whiteSpace=wrap;html=1;" vertex="1" parent="1">
          <mxGeometry x="240" y="-700" width="70" height="90" as="geometry" />
        </mxCell>
        <mxCell id="L39xVLBxvRy2gjfL3Dl3-110" value="Switching Circuit&lt;div&gt;&lt;br&gt;&lt;/div&gt;&lt;div&gt;(LM5148)&lt;/div&gt;" style="ellipse;whiteSpace=wrap;html=1;rounded=0;fillColor=#ffe6cc;strokeColor=#d79b00;" vertex="1" parent="1">
          <mxGeometry x="385" y="-695" width="80" height="80" as="geometry" />
        </mxCell>
        <mxCell id="L39xVLBxvRy2gjfL3Dl3-111" value="" style="strokeWidth=2;html=1;shape=mxgraph.flowchart.annotation_2;align=left;labelPosition=right;pointerEvents=1;rotation=90;" vertex="1" parent="1">
          <mxGeometry x="400" y="-550" width="50" height="100" as="geometry" />
        </mxCell>
        <mxCell id="L39xVLBxvRy2gjfL3Dl3-112" value="" style="endArrow=none;html=1;rounded=0;exitX=0;exitY=0.5;exitDx=0;exitDy=0;exitPerimeter=0;strokeWidth=2;" edge="1" parent="1" source="L39xVLBxvRy2gjfL3Dl3-111">
          <mxGeometry width="50" height="50" relative="1" as="geometry">
            <mxPoint x="425" y="-530" as="sourcePoint" />
            <mxPoint x="424.5" y="-615" as="targetPoint" />
          </mxGeometry>
        </mxCell>
        <mxCell id="L39xVLBxvRy2gjfL3Dl3-113" value="Power Mosfet" style="rounded=0;whiteSpace=wrap;html=1;" vertex="1" parent="1">
          <mxGeometry x="310" y="-480" width="90" height="60" as="geometry" />
        </mxCell>
        <mxCell id="L39xVLBxvRy2gjfL3Dl3-114" value="Power Mosfet" style="rounded=0;whiteSpace=wrap;html=1;" vertex="1" parent="1">
          <mxGeometry x="450" y="-480" width="90" height="60" as="geometry" />
        </mxCell>
        <mxCell id="L39xVLBxvRy2gjfL3Dl3-115" value="" style="strokeWidth=2;html=1;shape=mxgraph.flowchart.annotation_2;align=left;labelPosition=right;pointerEvents=1;rotation=-90;" vertex="1" parent="1">
          <mxGeometry x="400" y="-440" width="50" height="100" as="geometry" />
        </mxCell>
        <mxCell id="L39xVLBxvRy2gjfL3Dl3-116" value="" style="edgeStyle=orthogonalEdgeStyle;rounded=0;orthogonalLoop=1;jettySize=auto;html=1;" edge="1" parent="1" source="L39xVLBxvRy2gjfL3Dl3-117" target="L39xVLBxvRy2gjfL3Dl3-130">
          <mxGeometry relative="1" as="geometry" />
        </mxCell>
        <mxCell id="L39xVLBxvRy2gjfL3Dl3-117" value="Inductor" style="rounded=0;whiteSpace=wrap;html=1;" vertex="1" parent="1">
          <mxGeometry x="370" y="-360" width="110" height="60" as="geometry" />
        </mxCell>
        <mxCell id="L39xVLBxvRy2gjfL3Dl3-118" value="HO" style="text;html=1;align=center;verticalAlign=middle;whiteSpace=wrap;rounded=0;" vertex="1" parent="1">
          <mxGeometry x="310" y="-510" width="60" height="30" as="geometry" />
        </mxCell>
        <mxCell id="L39xVLBxvRy2gjfL3Dl3-119" value="LO" style="text;html=1;align=center;verticalAlign=middle;whiteSpace=wrap;rounded=0;" vertex="1" parent="1">
          <mxGeometry x="470" y="-510" width="60" height="30" as="geometry" />
        </mxCell>
        <mxCell id="L39xVLBxvRy2gjfL3Dl3-120" value="" style="edgeStyle=elbowEdgeStyle;elbow=horizontal;endArrow=classic;html=1;curved=0;rounded=0;endSize=8;startSize=8;exitX=1;exitY=0.5;exitDx=0;exitDy=0;entryX=1;entryY=0.5;entryDx=0;entryDy=0;" edge="1" parent="1" source="L39xVLBxvRy2gjfL3Dl3-110" target="L39xVLBxvRy2gjfL3Dl3-117">
          <mxGeometry width="50" height="50" relative="1" as="geometry">
            <mxPoint x="570" y="-645" as="sourcePoint" />
            <mxPoint x="630" y="-340" as="targetPoint" />
            <Array as="points">
              <mxPoint x="590" y="-500" />
            </Array>
          </mxGeometry>
        </mxCell>
        <mxCell id="L39xVLBxvRy2gjfL3Dl3-121" value="DC-DC Buck Converter" style="text;strokeColor=none;fillColor=none;html=1;fontSize=24;fontStyle=1;verticalAlign=middle;align=center;" vertex="1" parent="1">
          <mxGeometry x="360" y="-1020" width="130" height="40" as="geometry" />
        </mxCell>
        <mxCell id="L39xVLBxvRy2gjfL3Dl3-122" value="SW" style="text;html=1;align=center;verticalAlign=middle;whiteSpace=wrap;rounded=0;rotation=90;" vertex="1" parent="1">
          <mxGeometry x="580" y="-490" width="60" height="30" as="geometry" />
        </mxCell>
        <mxCell id="L39xVLBxvRy2gjfL3Dl3-123" value="Soft Start Circuit" style="rounded=0;whiteSpace=wrap;html=1;" vertex="1" parent="1">
          <mxGeometry x="365" y="-910" width="120" height="60" as="geometry" />
        </mxCell>
        <mxCell id="L39xVLBxvRy2gjfL3Dl3-124" value="" style="edgeStyle=orthogonalEdgeStyle;rounded=0;orthogonalLoop=1;jettySize=auto;html=1;" edge="1" parent="1" source="L39xVLBxvRy2gjfL3Dl3-125" target="L39xVLBxvRy2gjfL3Dl3-123">
          <mxGeometry relative="1" as="geometry" />
        </mxCell>
        <mxCell id="L39xVLBxvRy2gjfL3Dl3-125" value="Enable/Shutdown&amp;nbsp;&lt;div&gt;Pin&lt;/div&gt;" style="rounded=0;whiteSpace=wrap;html=1;" vertex="1" parent="1">
          <mxGeometry x="530" y="-910" width="120" height="60" as="geometry" />
        </mxCell>
        <mxCell id="L39xVLBxvRy2gjfL3Dl3-126" value="" style="endArrow=classic;html=1;rounded=0;entryX=0.5;entryY=0;entryDx=0;entryDy=0;exitX=0.5;exitY=1;exitDx=0;exitDy=0;" edge="1" parent="1" source="L39xVLBxvRy2gjfL3Dl3-123" target="L39xVLBxvRy2gjfL3Dl3-110">
          <mxGeometry width="50" height="50" relative="1" as="geometry">
            <mxPoint x="428" y="-850" as="sourcePoint" />
            <mxPoint x="432" y="-695" as="targetPoint" />
            <Array as="points" />
          </mxGeometry>
        </mxCell>
        <mxCell id="L39xVLBxvRy2gjfL3Dl3-127" value="filtered input" style="text;html=1;align=center;verticalAlign=middle;whiteSpace=wrap;rounded=0;" vertex="1" parent="1">
          <mxGeometry x="325" y="-650" width="40" height="30" as="geometry" />
        </mxCell>
        <mxCell id="L39xVLBxvRy2gjfL3Dl3-128" value="Control and Interface" style="text;html=1;align=center;verticalAlign=middle;whiteSpace=wrap;rounded=0;rotation=0;" vertex="1" parent="1">
          <mxGeometry x="430" y="-790" width="60" height="40" as="geometry" />
        </mxCell>
        <mxCell id="L39xVLBxvRy2gjfL3Dl3-129" value="" style="edgeStyle=orthogonalEdgeStyle;rounded=0;orthogonalLoop=1;jettySize=auto;html=1;" edge="1" parent="1" source="L39xVLBxvRy2gjfL3Dl3-130" target="L39xVLBxvRy2gjfL3Dl3-131">
          <mxGeometry relative="1" as="geometry" />
        </mxCell>
        <mxCell id="L39xVLBxvRy2gjfL3Dl3-130" value="Output Filters" style="rounded=0;whiteSpace=wrap;html=1;" vertex="1" parent="1">
          <mxGeometry x="370" y="-220" width="110" height="60" as="geometry" />
        </mxCell>
        <mxCell id="L39xVLBxvRy2gjfL3Dl3-131" value="Output&lt;div&gt;(5V)&lt;/div&gt;&lt;div&gt;(Max 5A)&lt;/div&gt;" style="rounded=0;whiteSpace=wrap;html=1;fillColor=#dae8fc;strokeColor=#6c8ebf;" vertex="1" parent="1">
          <mxGeometry x="370" y="-80" width="110" height="60" as="geometry" />
        </mxCell>
        <mxCell id="L39xVLBxvRy2gjfL3Dl3-132" value="Output stage" style="text;html=1;align=center;verticalAlign=middle;whiteSpace=wrap;rounded=0;" vertex="1" parent="1">
          <mxGeometry x="430" y="-270" width="60" height="30" as="geometry" />
        </mxCell>
      </root>
    </mxGraphModel>
  </diagram>
</mxfile>
